HIERARCHY
ROOT Hips
{
	OFFSET 0.00000 0.00000 0.00000
	CHANNELS 6 Xposition Yposition Zposition Zrotation Yrotation Xrotation 
	JOINT LHipJoint
	{
		OFFSET 0 0 0
		CHANNELS 3 Zrotation Yrotation Xrotation
		JOINT LeftUpLeg
		{
			OFFSET 1.38615 -1.80049 0.80104
			CHANNELS 3 Zrotation Yrotation Xrotation
			JOINT LeftLeg
			{
				OFFSET 2.50172 -6.87341 0.00000
				CHANNELS 3 Zrotation Yrotation Xrotation
				JOINT LeftFoot
				{
					OFFSET 2.67523 -7.35014 0.00000
					CHANNELS 3 Zrotation Yrotation Xrotation
					JOINT LeftToeBase
					{
						OFFSET 0.17446 -0.47932 2.13155
						CHANNELS 3 Zrotation Yrotation Xrotation
						End Site
						{
							OFFSET 0.00000 -0.00000 1.10023
						}
					}
				}
			}
		}
	}
	JOINT RHipJoint
	{
		OFFSET 0 0 0
		CHANNELS 3 Zrotation Yrotation Xrotation
		JOINT RightUpLeg
		{
			OFFSET -1.18047 -1.80049 0.80104
			CHANNELS 3 Zrotation Yrotation Xrotation
			JOINT RightLeg
			{
				OFFSET -2.59789 -7.13765 0.00000
				CHANNELS 3 Zrotation Yrotation Xrotation
				JOINT RightFoot
				{
					OFFSET -2.62125 -7.20183 0.00000
					CHANNELS 3 Zrotation Yrotation Xrotation
					JOINT RightToeBase
					{
						OFFSET -0.31287 -0.85960 2.07814
						CHANNELS 3 Zrotation Yrotation Xrotation
						End Site
						{
							OFFSET -0.00000 -0.00000 1.11766
						}
					}
				}
			}
		}
	}
	JOINT LowerBack
	{
		OFFSET 0 0 0
		CHANNELS 3 Zrotation Yrotation Xrotation
		JOINT Spine
		{
			OFFSET -0.01587 2.16157 -0.12309
			CHANNELS 3 Zrotation Yrotation Xrotation
			JOINT Spine1
			{
				OFFSET 0.04727 2.16674 -0.03569
				CHANNELS 3 Zrotation Yrotation Xrotation
				JOINT Neck
				{
					OFFSET 0 0 0
					CHANNELS 3 Zrotation Yrotation Xrotation
					JOINT Neck1
					{
						OFFSET -0.08586 1.60335 0.32783
						CHANNELS 3 Zrotation Yrotation Xrotation
						JOINT Head
						{
							OFFSET 0.07583 1.65857 -0.31618
							CHANNELS 3 Zrotation Yrotation Xrotation
							End Site
							{
								OFFSET 0.03386 1.69434 -0.14584
							}
						}
					}
				}
				JOINT LeftShoulder
				{
					OFFSET 0 0 0
					CHANNELS 3 Zrotation Yrotation Xrotation
					JOINT LeftArm
					{
						OFFSET 3.17393 1.01901 -0.52897
						CHANNELS 3 Zrotation Yrotation Xrotation
						JOINT LeftForeArm
						{
							OFFSET 5.25287 -0.00000 -0.00000
							CHANNELS 3 Zrotation Yrotation Xrotation
							JOINT LeftHand
							{
								OFFSET 3.51014 -0.00000 0.00000
								CHANNELS 3 Zrotation Yrotation Xrotation
								JOINT LeftFingerBase
								{
									OFFSET 0 0 0
									CHANNELS 3 Zrotation Yrotation Xrotation
									JOINT LeftHandIndex1
									{
										OFFSET 0.70618 -0.00000 -0.00000
										CHANNELS 3 Zrotation Yrotation Xrotation
										End Site
										{
											OFFSET 0.56934 -0.00000 -0.00000
										}
									}
								}
								JOINT LThumb
								{
									OFFSET 0 0 0
									CHANNELS 3 Zrotation Yrotation Xrotation
									End Site
									{
										OFFSET 0.57803 -0.00000 0.57803
									}
								}
							}
						}
					}
				}
				JOINT RightShoulder
				{
					OFFSET 0 0 0
					CHANNELS 3 Zrotation Yrotation Xrotation
					JOINT RightArm
					{
						OFFSET -2.99471 1.26495 -0.61125
						CHANNELS 3 Zrotation Yrotation Xrotation
						JOINT RightForeArm
						{
							OFFSET -5.28721 -0.00000 -0.00000
							CHANNELS 3 Zrotation Yrotation Xrotation
							JOINT RightHand
							{
								OFFSET -3.50544 -0.00000 0.00000
								CHANNELS 3 Zrotation Yrotation Xrotation
								JOINT RightFingerBase
								{
									OFFSET 0 0 0
									CHANNELS 3 Zrotation Yrotation Xrotation
									JOINT RightHandIndex1
									{
										OFFSET -0.88500 -0.00000 -0.00000
										CHANNELS 3 Zrotation Yrotation Xrotation
										End Site
										{
											OFFSET -0.71351 -0.00000 -0.00000
										}
									}
								}
								JOINT RThumb
								{
									OFFSET 0 0 0
									CHANNELS 3 Zrotation Yrotation Xrotation
									End Site
									{
										OFFSET -0.72440 -0.00000 0.72440
									}
								}
							}
						}
					}
				}
			}
		}
	}
}
MOTION
Frames: 14
Frame Time: .0083333
-7.0494 17.8188 8.0319 194.5890 15.7425 -169.5090 0.0000 0.0000 0.0000 6.7744 -9.8597 -25.4371 6.7892 15.1518 48.0727 0.3351 3.9940 -13.1458 0.0162 -0.8214 -2.2575 0.0000 0.0000 0.0000 24.1951 3.7511 -19.1854 -2.1584 -9.1886 26.3871 -0.5010 -0.5679 -13.5890 -0.3484 3.7928 -10.4944 -2.6129 -2.0673 6.5107 1.1537 -2.6509 4.2643 2.7976 -1.2962 0.9314 -17.7719 -15.6448 -6.4060 12.0145 -21.8543 30.1744 4.1245 -9.9338 15.0492 -0.0000 -0.0000 0.0000 -78.0112 4.6183 14.3173 24.4307 -35.6164 -7.9560 -0.0000 -0.0000 1.8281 4.5023 32.9102 2.4498 -7.1250 0.0000 -0.0000 -31.9597 60.0198 -12.4688 -0.0000 -0.0000 0.0000 72.6777 -4.4559 -8.5786 -64.5236 57.3996 -38.1294 0.0000 -0.0000 -70.8750 4.5196 -11.8001 -0.9261 7.1250 -0.0000 -0.0000 27.3806 -40.1302 3.6028
-7.1149 17.8090 7.9678 194.6090 16.1398 -169.6530 0.0000 0.0000 0.0000 7.4878 -10.9686 -23.9801 6.1687 14.5898 45.6549 0.2768 3.6511 -11.9687 0.1540 -2.5290 -6.9701 0.0000 0.0000 0.0000 23.9186 4.0306 -18.5512 -2.1103 -9.0921 26.0838 -0.5027 -0.7439 -13.6838 -0.3430 3.7631 -10.4111 -2.6733 -2.0495 6.7526 1.1127 -2.6383 4.1993 2.7995 -1.2874 0.7304 -17.8984 -15.6202 -6.2219 12.1019 -21.8444 30.0020 4.1895 -9.9516 14.9597 0.0000 -0.0000 0.0000 -78.1083 4.8849 14.3357 24.6305 -35.8240 -8.0727 -0.0000 -0.0000 1.4720 4.4251 33.3741 2.4376 -7.1250 0.0000 -0.0000 -32.4933 60.3897 -12.9944 0.0000 -0.0000 0.0000 72.6430 -4.8885 -8.2286 -65.0103 57.5036 -38.5397 0.0000 -0.0000 -70.5490 5.0215 -11.6603 -1.0174 7.1250 -0.0000 -0.0000 27.7302 -39.9588 3.7880
-7.1860 17.8139 7.8947 194.3750 16.6271 -169.7210 0.0000 0.0000 0.0000 7.8020 -12.1307 -22.5253 5.5438 13.9712 43.1222 0.2782 2.5622 -11.2434 0.5102 -4.5787 -12.7107 0.0000 0.0000 0.0000 23.3208 4.3591 -18.1467 -2.0825 -9.0359 25.9077 -0.4928 -0.8561 -13.5985 -0.3563 3.8351 -10.6132 -2.8502 -2.0695 6.6717 0.9593 -2.6804 4.1556 2.7404 -1.3126 0.7339 -17.7745 -15.5202 -6.1428 11.9119 -21.6616 29.8560 4.1404 -9.8950 14.7866 0.0000 0.0000 0.0000 -78.1445 5.1750 14.2611 24.8792 -36.0803 -8.2187 -0.0000 -0.0000 1.0951 4.2654 33.3879 2.3503 -7.1250 0.0000 -0.0000 -32.6660 60.3635 -13.0518 0.0000 0.0000 0.0000 72.6143 -5.1691 -7.8096 -65.3090 57.5662 -38.7917 0.0000 -0.0000 -70.3043 5.0513 -11.3103 -0.9932 7.1250 -0.0000 -0.0000 27.6231 -39.6444 4.0078
-7.2581 17.8109 7.8312 194.0630 17.0929 -169.5840 0.0000 0.0000 0.0000 8.0289 -13.0956 -21.3699 4.9644 13.3435 40.6685 0.3213 0.9465 -11.0930 1.2408 -7.0631 -19.9025 0.0000 0.0000 0.0000 22.6361 4.5473 -18.1786 -2.0738 -9.0182 25.8523 -0.4820 -0.7811 -13.4206 -0.3919 4.0198 -11.1324 -3.1821 -2.0543 6.3451 0.8638 -2.6762 4.1479 2.8147 -1.3222 0.9189 -17.7043 -15.4364 -5.9900 12.0274 -21.5893 29.4529 4.1974 -9.8718 14.5601 0.0000 0.0000 0.0000 -78.2025 5.1779 14.3478 25.2242 -36.4323 -8.4227 -0.0000 -0.0000 0.6908 4.5030 32.6704 2.4343 -7.1250 0.0000 -0.0000 -31.7279 59.8185 -12.2124 0.0000 0.0000 0.0000 72.5179 -5.2024 -7.6521 -65.6814 57.6430 -39.1061 0.0000 -0.0000 -70.2299 4.9108 -11.5452 -0.9852 7.1250 -0.0000 -0.0000 27.5986 -39.8665 3.8359
-7.3332 17.8057 7.7703 193.6760 17.5656 -169.4860 0.0000 0.0000 0.0000 8.1093 -13.8936 -20.1901 4.4671 12.7573 38.4667 0.3691 -0.9169 -11.1909 1.7205 -8.2579 -23.5001 0.0000 0.0000 0.0000 21.8738 4.6266 -18.2865 -2.0790 -9.0287 25.8853 -0.4740 -0.6241 -13.2461 -0.4206 4.1626 -11.5345 -3.6141 -2.0265 6.1396 0.7638 -2.6609 4.1136 2.9454 -1.3263 1.0137 -17.7613 -15.5514 -6.4712 12.0856 -21.7465 29.6377 4.1578 -9.9106 14.7979 -0.0000 0.0000 0.0000 -78.2987 5.1308 14.4450 25.6570 -36.8680 -8.6811 -0.0000 -0.0000 0.4235 4.4028 32.9271 2.3966 -7.1250 0.0000 -0.0000 -32.0749 60.0107 -12.5125 -0.0000 0.0000 0.0000 72.3802 -5.4511 -7.3440 -66.4368 57.7944 -39.7447 0.0000 -0.0000 -70.3300 4.6364 -11.6995 -0.9421 7.1250 -0.0000 -0.0000 27.4366 -40.0294 3.6870
-7.4120 17.7952 7.6991 193.3160 18.3169 -169.5680 0.0000 0.0000 0.0000 8.0050 -14.3063 -18.8748 4.0881 12.2767 36.7180 0.3908 -2.8342 -11.1739 1.6666 -8.1340 -23.1217 0.0000 0.0000 0.0000 21.0823 4.9108 -18.1315 -2.0902 -9.0515 25.9565 -0.4719 -0.4076 -13.1316 -0.4453 4.2814 -11.8696 -4.0880 -1.9173 6.1014 0.6631 -2.5422 4.0567 3.1015 -1.2757 0.9857 -17.8938 -15.5327 -6.6018 12.2641 -21.7464 29.6920 4.2406 -9.8946 14.9010 0.0000 -0.0000 0.0000 -78.4734 5.3713 14.5888 26.1929 -37.3986 -9.0046 -0.0000 -0.0000 0.1295 4.2194 33.7054 2.3444 -7.1250 0.0000 -0.0000 -33.0321 60.6162 -13.4186 0.0000 -0.0000 0.0000 72.1857 -5.8270 -6.9473 -67.0590 57.9149 -40.2716 0.0000 -0.0000 -70.3722 4.2076 -11.6278 -0.8495 7.1250 -0.0000 -0.0000 27.0656 -40.0051 3.6454
-7.4940 17.7659 7.6271 193.1600 19.1848 -169.7100 0.0000 0.0000 0.0000 7.9054 -14.1308 -17.7283 3.8407 11.9453 35.5388 0.3968 -4.5370 -11.2108 2.1468 -9.1653 -26.3138 0.0000 0.0000 0.0000 20.4808 5.3129 -17.7979 -2.0935 -9.0581 25.9772 -0.4739 -0.1727 -13.0704 -0.4636 4.3675 -12.1128 -4.2718 -1.7058 6.2116 0.5838 -2.2728 4.0427 3.1148 -1.1403 0.8925 -17.8155 -15.5567 -6.6316 12.1772 -21.7651 29.5991 4.1847 -9.9085 14.8411 -0.0000 -0.0000 0.0000 -78.5766 5.5665 14.9888 26.6052 -37.8000 -9.2561 -0.0000 0.0000 -0.2290 4.6424 33.4370 2.5620 -7.1250 0.0000 -0.0000 -32.3400 60.4939 -13.0064 -0.0000 -0.0000 0.0000 72.0544 -6.0721 -6.8157 -67.4340 57.9856 -40.5894 0.0000 -0.0000 -70.3426 3.8191 -11.7355 -0.7779 7.1250 -0.0000 -0.0000 26.7927 -40.1374 3.5055
-7.5811 17.7368 7.5623 193.1510 19.8485 -169.7210 0.0000 0.0000 0.0000 7.9020 -13.6460 -16.9998 3.6969 11.7458 34.8386 0.4164 -6.5174 -11.6779 3.0601 -10.7917 -31.5804 0.0000 0.0000 0.0000 20.0554 5.5570 -17.6071 -2.0821 -9.0351 25.9051 -0.4743 0.0301 -13.0026 -0.4711 4.4022 -12.2110 -3.9688 -1.6048 6.1767 0.4066 -2.1139 4.1278 2.7521 -1.0526 0.9659 -17.6852 -15.5886 -6.7307 12.2917 -21.8640 29.3627 4.1767 -9.9337 14.7704 -0.0000 0.0000 0.0000 -78.4468 5.3918 15.2725 26.8263 -38.0131 -9.3920 -0.0000 0.0000 -0.3834 4.9910 33.1894 2.7370 -7.1250 0.0000 -0.0000 -31.7464 60.3691 -12.6428 -0.0000 0.0000 0.0000 72.1164 -6.1341 -6.6515 -67.8800 58.0680 -40.9678 0.0000 -0.0000 -70.4983 3.6977 -11.8258 -0.7588 7.1250 -0.0000 -0.0000 26.7281 -40.2295 3.4287
-7.6746 17.7067 7.5012 193.7910 20.4156 -169.3320 0.0000 0.0000 0.0000 8.5493 -12.8057 -16.6018 3.5987 11.6063 34.3529 0.3917 -8.9793 -11.9571 3.5817 -11.5820 -34.2687 0.0000 0.0000 0.0000 20.2922 5.9357 -17.5839 -2.0707 -9.0118 25.8324 -0.4796 0.2255 -13.0081 -0.4603 4.3522 -12.0696 -3.1339 -1.6256 6.0014 0.4765 -2.1049 4.0959 2.3509 -1.0358 0.9961 -17.9562 -15.4509 -6.7154 12.7367 -21.7488 29.1633 4.4200 -9.8724 14.7658 -0.0000 0.0000 0.0000 -78.5329 5.4329 15.2232 27.1688 -38.3397 -9.6036 -0.0000 0.0000 -0.5151 4.9488 33.7091 2.7512 -7.1250 0.0000 -0.0000 -32.3091 60.7943 -13.2255 -0.0000 0.0000 0.0000 71.9684 -6.2260 -6.1859 -68.2975 58.1433 -41.3222 0.0000 -0.0000 -70.6126 3.8303 -11.9815 -0.7963 7.1250 -0.0000 -0.0000 26.8932 -40.3566 3.3612
-7.7673 17.6841 7.4425 194.0830 20.9812 -169.0750 0.0000 0.0000 0.0000 8.6838 -11.9593 -16.2188 3.5061 11.4725 33.8903 0.2863 -10.9860 -11.4724 3.5092 -11.4769 -33.9057 0.0000 0.0000 0.0000 20.1553 6.5216 -17.5598 -2.0835 -9.0379 25.9138 -0.4887 0.2433 -13.1260 -0.4614 4.3571 -12.0836 -2.8446 -1.6647 6.0461 0.6209 -2.1581 3.9591 2.3439 -1.0590 0.8264 -18.3386 -15.3220 -6.7961 12.9153 -21.5394 29.2051 4.5910 -9.7976 14.8470 0.0000 -0.0000 0.0000 -78.9070 5.6564 14.9818 27.5188 -38.6694 -9.8215 -0.0000 0.0000 -0.4819 4.7576 34.3844 2.6910 -7.1250 0.0000 -0.0000 -33.2020 61.3083 -14.0472 0.0000 -0.0000 0.0000 71.6270 -6.3431 -5.6466 -68.6445 58.2046 -41.6171 0.0000 -0.0000 -70.5952 3.7230 -12.0172 -0.7762 7.1250 -0.0000 -0.0000 26.8198 -40.3986 3.3197
-7.8547 17.6966 7.3720 192.8160 21.8093 -169.6070 0.0000 0.0000 0.0000 6.8557 -11.2576 -15.5349 3.3997 11.3156 33.3518 0.3267 -12.1461 -12.4425 3.3366 -11.2210 -33.0290 0.0000 0.0000 0.0000 18.4076 6.7825 -17.4585 -2.1225 -9.1167 26.1611 -0.5092 0.4208 -13.3426 -0.5596 4.7917 -13.3154 -3.9529 -1.5555 6.1664 0.2675 -2.0588 4.0284 2.5985 -1.0233 0.8580 -17.9906 -15.3832 -7.1488 12.6094 -21.5637 29.1193 4.3807 -9.7976 14.7847 0.0000 -0.0000 0.0000 -78.9649 5.3171 15.1256 27.5654 -38.7130 -9.8507 -0.0000 0.0000 -0.5302 4.6740 34.8169 2.6726 -7.1250 0.0000 -0.0000 -33.7506 61.6436 -14.5794 0.0000 -0.0000 0.0000 71.5561 -6.4026 -5.4656 -69.1461 58.2913 -42.0436 0.0000 -0.0000 -70.7584 3.5674 -11.8624 -0.7342 7.1250 -0.0000 -0.0000 26.6363 -40.2744 3.3824
-7.9438 17.7018 7.3018 191.6330 22.6556 -169.9530 0.0000 0.0000 0.0000 5.0400 -10.1931 -15.2247 3.2867 11.1453 32.7715 0.3465 -12.7229 -12.9129 3.0473 -10.7713 -31.5123 0.0000 0.0000 0.0000 16.7232 6.9436 -17.6908 -2.1727 -9.2169 26.4761 -0.5330 0.8178 -13.5338 -0.6604 5.1976 -14.4731 -4.9138 -1.4153 6.0012 -0.1321 -1.8906 4.1498 2.7097 -0.9538 1.0877 -17.3967 -15.4833 -7.7051 12.3086 -21.6745 28.9411 4.1027 -9.8049 14.7044 0.0000 -0.0000 0.0000 -78.8380 4.7185 15.5544 27.5514 -38.6999 -9.8419 -0.0000 0.0000 -0.9468 4.9671 34.9211 2.8482 -7.1250 0.0000 -0.0000 -33.5709 61.8023 -14.6182 0.0000 -0.0000 0.0000 71.6863 -6.2904 -5.4998 -69.5825 58.3647 -42.4150 0.0000 -0.0000 -70.7927 3.5404 -11.8025 -0.7250 7.1250 -0.0000 -0.0000 26.5924 -40.2232 3.4127
-8.0315 17.6809 7.2373 191.1080 23.3065 -169.8770 0.0000 0.0000 0.0000 3.9054 -8.8266 -15.3131 3.1867 10.9914 32.2507 0.4910 -12.4005 -14.2135 3.6663 -11.7025 -34.6876 0.0000 0.0000 0.0000 15.7223 7.2874 -18.0739 -2.2182 -9.3064 26.7586 -0.5404 1.0229 -13.5715 -0.7003 5.3491 -14.9070 -5.3834 -1.5471 5.7069 -0.1809 -2.0864 4.0251 2.9234 -1.0658 1.1569 -17.6305 -15.3345 -8.1361 12.2433 -21.3531 29.0200 4.1524 -9.6792 14.7944 -0.0000 -0.0000 0.0000 -79.2227 4.8390 15.3066 27.6931 -38.8322 -9.9307 -0.0000 0.0000 -0.9621 5.0401 34.9166 2.8899 -7.1250 0.0000 -0.0000 -33.4926 61.8167 -14.5913 -0.0000 -0.0000 0.0000 71.4226 -6.0925 -4.8895 -69.6381 58.3739 -42.4623 0.0000 -0.0000 -70.5637 3.6362 -11.8920 -0.7503 7.1250 -0.0000 -0.0000 26.7029 -40.2945 3.3779
-8.1158 17.6541 7.1724 190.4080 23.8806 -170.0810 0.0000 0.0000 0.0000 2.4392 -7.3240 -15.3316 3.1095 10.8702 31.8434 0.4033 -12.6865 -13.4705 2.4625 -9.7694 -28.2332 0.0000 0.0000 0.0000 14.6130 7.6100 -18.1174 -2.2575 -9.3831 27.0012 -0.5388 0.8567 -13.5976 -0.7693 5.6006 -15.6299 -6.0578 -1.7141 5.6669 -0.1983 -2.3549 3.8257 3.2952 -1.2112 1.0288 -18.0251 -14.9834 -7.6659 12.1745 -20.7600 28.8903 4.3504 -9.5012 14.5636 -0.0000 -0.0000 0.0000 -79.6947 5.1254 15.0576 27.7558 -38.8905 -9.9700 -0.0000 0.0000 -0.7864 4.9571 34.5430 2.8156 -7.1250 0.0000 -0.0000 -33.1711 61.4884 -14.1748 -0.0000 -0.0000 0.0000 70.9650 -6.1768 -4.1486 -69.8035 58.4012 -42.6032 0.0000 -0.0000 -70.4895 3.8561 -12.2096 -0.8167 7.1250 -0.0000 -0.0000 26.9998 -40.5583 3.2292
